<svg xmlns="http://www.w3.org/2000/svg" class="svg-icon" style="width: 1em; height: 1em;vertical-align: middle;fill: currentColor;overflow: hidden;" viewBox="200 200 700 700" version="1.1"><path d="M556.088889 826.311111c-7.111111 0-15.644444-2.844444-21.333333-8.533333-11.377778-11.377778-9.955556-29.866667 1.422222-39.822222l103.822222-98.133334-315.733333-78.222222c-9.955556-2.844444-18.488889-11.377778-21.333334-21.333333-2.844444-9.955556 1.422222-21.333333 8.533334-28.444445l304.355555-260.266666c11.377778-9.955556 29.866667-8.533333 39.822222 2.844444 9.955556 11.377778 8.533333 29.866667-2.844444 39.822222L392.533333 558.933333l312.888889 76.8c9.955556 2.844444 18.488889 9.955556 21.333334 19.911111s0 21.333333-8.533334 28.444445l-142.222222 133.688889c-5.688889 5.688889-12.8 8.533333-19.911111 8.533333z" fill="#3FA6AD"/><path d="M637.155556 312.888889m-88.177778 0a88.177778 88.177778 0 1 0 176.355555 0 88.177778 88.177778 0 1 0-176.355555 0Z" fill="#3FA6AD"/><path d="M331.377778 576m-66.844445 0a66.844444 66.844444 0 1 0 133.688889 0 66.844444 66.844444 0 1 0-133.688889 0Z" fill="#DC4569"/><path d="M708.266667 659.911111m-71.111111 0a71.111111 71.111111 0 1 0 142.222222 0 71.111111 71.111111 0 1 0-142.222222 0Z" fill="#DC4569"/><path d="M541.866667 812.088889m-45.511111 0a45.511111 45.511111 0 1 0 91.022222 0 45.511111 45.511111 0 1 0-91.022222 0Z" fill="#3FA6AD"/></svg>