<svg xmlns="http://www.w3.org/2000/svg" class="svg-icon" style="width: 1em;height: 1em;vertical-align: middle;fill: currentColor;overflow: hidden;" viewBox="0 0 1024 1024" version="1.1"><path d="M405.324 298.668c-11.78 0-21.342-9.532-21.342-21.312V21.364c0-11.782 9.562-21.342 21.342-21.342 11.782 0 21.344 9.562 21.344 21.342v255.992c-0.002 11.78-9.564 21.312-21.344 21.312zM618.676 298.668c-11.812 0-21.376-9.532-21.376-21.312V21.364c0-11.782 9.562-21.342 21.376-21.342 11.75 0 21.312 9.562 21.312 21.342v255.992c0 11.78-9.562 21.312-21.312 21.312z" fill="gray"/><path d="M511.976 1023.99c-11.75 0-21.312-9.562-21.312-21.344V277.356c0-11.78 9.562-21.342 21.312-21.342a21.332 21.332 0 0 1 21.344 21.342v725.292c0 11.78-9.53 21.342-21.344 21.342z" fill="#AAB2BC"/><path d="M618.614 170.672c-3.688 0-7.5-0.968-10.938-3.032l-213.32-127.996c-10.094-6.062-13.376-19.156-7.312-29.25 6.062-10.124 19.156-13.406 29.25-7.342l213.322 127.996c10.124 6.062 13.376 19.186 7.312 29.28a21.33 21.33 0 0 1-18.314 10.344z" fill="gray"/><path d="M405.354 298.668a21.324 21.324 0 0 1-18.312-10.344c-6.062-10.094-2.782-23.218 7.312-29.28l213.32-127.996a21.312 21.312 0 0 1 29.25 7.312c6.062 10.124 2.812 23.218-7.312 29.28l-213.322 127.996a21.172 21.172 0 0 1-10.936 3.032zM375.23 469.35a21.356 21.356 0 0 1-19.03-11.656c-5.344-10.5-1.188-23.344 9.312-28.688l250.976-127.996c10.5-5.344 23.376-1.188 28.688 9.312 5.376 10.5 1.188 23.342-9.312 28.686l-250.946 127.996a21.246 21.246 0 0 1-9.688 2.346z" fill="gray"/><path d="M671.364 597.346c-2.812 0-5.688-0.562-8.438-1.75L366.762 467.6c-10.844-4.688-15.812-17.25-11.124-28.062 4.656-10.812 17.218-15.782 28.03-11.124L679.8 556.41c10.812 4.688 15.812 17.25 11.124 28.062-3.436 8.064-11.31 12.874-19.56 12.874z" fill="gray"/><path d="M330.044 725.342c-8.656 0-16.782-5.28-19.968-13.842-4.156-11.032 1.438-23.344 12.468-27.468l341.318-127.996c11.062-4.156 23.312 1.438 27.5 12.468 4.124 11.032-1.5 23.344-12.5 27.466l-341.32 127.996a21.156 21.156 0 0 1-7.498 1.376z" fill="gray"/><path d="M716.546 853.34c-2.25 0-4.5-0.344-6.75-1.094l-386.47-127.998c-11.188-3.716-17.25-15.78-13.532-26.966 3.688-11.188 15.75-17.25 26.938-13.532l386.502 127.998c11.188 3.688 17.25 15.78 13.562 26.936a21.394 21.394 0 0 1-20.25 14.656z" fill="gray"/><path d="M284.858 981.336c-9.218 0-17.686-6-20.436-15.282-3.376-11.31 3.094-23.154 14.374-26.53l431.688-127.996c11.25-3.344 23.124 3.094 26.5 14.404 3.376 11.282-3.062 23.156-14.376 26.5L290.92 980.43c-2 0.624-4.062 0.906-6.062 0.906z" fill="gray"/><path d="M405.354 170.672a21.324 21.324 0 0 1-18.312-10.344c-6.062-10.094-2.782-23.218 7.312-29.28l213.32-127.996a21.296 21.296 0 0 1 29.25 7.342c6.062 10.094 2.812 23.188-7.312 29.25L416.292 167.64a21.184 21.184 0 0 1-10.938 3.032z" fill="#4b1a57"/><path d="M618.614 298.668c-3.688 0-7.5-0.968-10.938-3.032L394.356 167.64c-10.094-6.062-13.376-19.156-7.312-29.28 6.062-10.094 19.156-13.376 29.25-7.312l213.322 127.996c10.124 6.062 13.376 19.186 7.312 29.28a21.33 21.33 0 0 1-18.314 10.344zM648.738 469.35c-3.25 0-6.562-0.75-9.688-2.344l-250.946-127.996c-10.5-5.344-14.656-18.186-9.312-28.686s18.218-14.656 28.686-9.312l251.008 127.996c10.5 5.344 14.624 18.188 9.312 28.688a21.368 21.368 0 0 1-19.06 11.654z" fill="#4b1a57"/><path d="M352.638 597.346c-8.25 0-16.124-4.81-19.592-12.874-4.688-10.812 0.312-23.376 11.124-28.062l296.132-127.996c10.812-4.656 23.376 0.312 28.062 11.124s-0.312 23.374-11.124 28.062l-296.164 127.996a21.268 21.268 0 0 1-8.438 1.75z" fill="#4b1a57"/><path d="M693.926 725.342a20.6 20.6 0 0 1-7.438-1.376l-341.35-127.996c-11.03-4.124-16.624-16.436-12.5-27.466 4.156-11.032 16.436-16.624 27.468-12.468l341.32 127.996c11.058 4.124 16.622 16.438 12.496 27.468-3.188 8.562-11.308 13.842-19.996 13.842z" fill="#4b1a57"/><path d="M307.452 853.34a21.34 21.34 0 0 1-20.25-14.656c-3.718-11.156 2.344-23.248 13.532-26.936l386.504-127.998c11.188-3.718 23.246 2.344 26.934 13.532 3.75 11.188-2.312 23.25-13.496 26.966l-386.506 127.998a21.14 21.14 0 0 1-6.718 1.094z" fill="#4b1a57"/><path d="M739.11 981.336c-2 0-4-0.282-6.062-0.906l-431.658-127.996c-11.312-3.344-17.75-15.218-14.406-26.5 3.376-11.31 15.25-17.748 26.53-14.404l431.658 127.996c11.312 3.376 17.75 15.218 14.376 26.53a21.292 21.292 0 0 1-20.438 15.28zM618.676 170.672H405.324c-11.78 0-21.342-9.532-21.342-21.312 0-11.78 9.562-21.342 21.342-21.342h213.352c11.75 0 21.312 9.562 21.312 21.342s-9.562 21.312-21.312 21.312z" fill="#4b1a57"/><path d="M959.98 298.668H64.022a21.344 21.344 0 0 1-21-17.532 21.29 21.29 0 0 1 13.5-23.75l341.334-127.996c11-4.156 23.312 1.438 27.436 12.468 4.156 11.032-1.438 23.344-12.468 27.468l-231.18 86.686H842.36L611.176 169.328c-11.062-4.124-16.624-16.438-12.5-27.468 4.124-11.03 16.438-16.624 27.5-12.468l341.304 127.996c9.624 3.594 15.308 13.624 13.496 23.75-1.874 10.154-10.684 17.53-20.996 17.53z" fill="#4b1a57"/><path d="M682.676 42.676H341.326c-11.78 0-21.342-9.532-21.342-21.312S329.544 0.02 341.326 0.02h341.35c11.75 0 21.312 9.562 21.312 21.342s-9.562 21.314-21.312 21.314z" fill="#434A54"/><path d="M277.358 1023.99a18.936 18.936 0 0 1-3.718-0.344c-11.624-2.032-19.374-13.094-17.312-24.688l127.996-725.322c2.032-11.594 13.094-19.342 24.718-17.312 11.594 2.062 19.344 13.124 17.282 24.716L298.36 1006.362a21.376 21.376 0 0 1-21.002 17.628zM746.61 1023.99c-10.124 0-19.124-7.282-20.938-17.624l-127.996-725.322c-2.062-11.592 5.688-22.656 17.25-24.716 11.624-2.032 22.688 5.718 24.75 17.312l127.996 725.322c2.062 11.594-5.688 22.656-17.312 24.688-1.25 0.246-2.5 0.34-3.75 0.34z" fill="#4b1a57"/><path d="M1002.664 362.666h-127.996c-11.812 0-21.376-9.532-21.376-21.312 0-11.782 9.562-21.342 21.376-21.342h127.996c11.75 0 21.312 9.562 21.312 21.342s-9.562 21.312-21.312 21.312zM959.98 426.664h-42.688c-11.75 0-21.312-9.532-21.312-21.312 0-11.782 9.562-21.342 21.312-21.342h42.688c11.75 0 21.308 9.562 21.308 21.342 0.002 11.78-9.558 21.312-21.308 21.312zM149.332 362.666H21.334A21.3 21.3 0 0 1 0.022 341.354c0-11.782 9.532-21.342 21.312-21.342h127.996c11.782 0 21.342 9.562 21.342 21.342 0.002 11.78-9.56 21.312-21.34 21.312zM106.676 426.664H64.022c-11.782 0-21.344-9.532-21.344-21.312 0-11.782 9.562-21.342 21.344-21.342h42.654c11.782 0 21.344 9.562 21.344 21.342s-9.562 21.312-21.344 21.312z" fill="#FFCE54"/></svg>