<?xml version="1.0" encoding="iso-8859-1"?>
<!-- Uploaded to: SVG Repo, www.svgrepo.com, Generator: SVG Repo Mixer Tools -->
<svg fill="white" version="1.1" id="Layer_1" xmlns="http://www.w3.org/2000/svg" xmlns:xlink="http://www.w3.org/1999/xlink" 
	 viewBox="0 0 512.147 512.147" xml:space="preserve">
<g>
	<g>
		<g>
			<path d="M492.627,80.607l-61.013-61.013c-26.133-26.027-68.373-26.027-94.507,0l-109.973,110.08
				c-21.333,21.333-17.493,53.653,9.387,80.64c4.267,4.053,10.987,3.947,15.04-0.213c3.947-4.16,3.947-10.667,0-14.827
				c-14.4-14.507-24.533-35.307-9.387-50.453l110.08-110.187c17.813-17.707,46.507-17.707,64.32,0l60.907,61.013
				c17.707,17.813,17.707,46.507,0,64.32l-109.973,110.08c-5.547,5.76-13.653,8.427-21.547,7.147
				c-9.493-1.387-19.413-7.04-28.907-16.427c-4.267-4.053-10.987-3.947-15.04,0.213c-3.947,4.16-3.947,10.667,0,14.827
				c12.693,12.8,26.88,20.587,40.96,22.507c2.347,0.32,4.693,0.533,7.04,0.533c12.267,0,24-4.907,32.64-13.653l109.973-110.187
				C518.654,148.873,518.654,106.633,492.627,80.607z"/>
			<path d="M260.734,301.833c-4.16,4.16-4.16,10.88,0,15.147c14.507,14.507,24.533,35.307,9.387,50.453L161,477.407
				c-8.427,8.533-19.947,13.333-32,13.333h-0.107c-12.053,0-23.573-4.693-32-13.227L34.6,415.22
				c-17.707-17.813-17.6-46.507,0.107-64.213l109.973-109.12c15.147-15.147,36.053-5.12,50.453,9.387
				c4.267,4.053,10.987,3.947,15.147-0.213c3.947-4.16,3.947-10.667,0-14.827c-26.88-26.88-59.413-30.72-80.64-9.387L19.667,335.86
				c-26.133,26.027-26.24,68.267-0.213,94.4l62.293,62.293c12.48,12.48,29.44,19.52,47.147,19.52H129
				c17.707,0,34.773-7.04,47.147-19.627L285.16,382.473c21.333-21.333,17.6-53.76-9.387-80.64
				C271.72,297.567,264.894,297.567,260.734,301.833z"/>
			<path d="M155.987,356.233c4.16,4.16,10.88,4.16,15.04,0L356.2,171.06c4.053-4.267,3.947-10.987-0.213-15.04
				c-4.16-3.947-10.667-3.947-14.827,0L155.987,341.193C151.827,345.353,151.827,352.073,155.987,356.233z"/>
		</g>
	</g>
</g>
</svg>