<svg xmlns="http://www.w3.org/2000/svg" class="svg-icon" style="width: 1em;height: 1em;vertical-align: middle;fill: currentColor;overflow: hidden;" viewBox="190 190 650 650" version="1.1"><path d="M512 512m-512 0a512 512 0 1 0 1024 0 512 512 0 1 0-1024 0Z" fill="#4A90E2" fill-opacity="0"/><path d="M592.145067 359.3216a25.770667 25.770667 0 0 0-17.578667-6.792533 25.770667 25.770667 0 0 0-17.578667 6.792533l-141.192533 131.6864c-7.099733 6.621867-9.216 16.5888-5.376 25.224533 3.84 8.6528 12.9024 14.301867 22.9376 14.301867h114.363733l-107.3152 100.061867a22.0672 22.0672 0 0 0 0.290134 32.477866c9.5744 8.942933 25.088 9.079467 34.816 0.290134l149.76-139.605334c7.099733-6.638933 9.216-16.5888 5.376-25.2416-3.84-8.6528-12.9024-14.2848-22.9376-14.301866h-114.363734l98.798934-92.125867c4.6592-4.352 7.287467-10.24 7.287466-16.384s-2.628267-12.032-7.287466-16.384z" fill="#4A90E2"/><path d="M520.533333 221.866667C684.8 221.866667 819.2 356.266667 819.2 520.533333S684.8 819.2 520.533333 819.2 221.866667 684.8 221.866667 520.533333 356.266667 221.866667 520.533333 221.866667z m0 560.008533c145.595733 0 261.341867-115.746133 261.341867-261.341867S666.112 259.191467 520.533333 259.191467 259.191467 374.954667 259.191467 520.533333 374.954667 781.8752 520.533333 781.8752z" fill="#4A90E2"/></svg>