<svg xmlns="http://www.w3.org/2000/svg" class="svg-icon" style="width: 1em; height: 1em;vertical-align: middle;fill: currentColor;overflow: hidden;" viewBox="0 0 1024 1024" version="1.1"><path d="M98.4 819.7h829.7v119.7H98.4z" fill="#C0C3C6"/><path d="M928 959.6H98.4c-11.1 0-20.1-9-20.1-20.1V819.7c0-11.1 9-20.1 20.1-20.1H928c11.1 0 20.1 9 20.1 20.1v119.7c0.1 11.1-8.9 20.2-20.1 20.2z m-809.5-40.3h789.4v-79.4H118.5v79.4zM512.1 752.1c-5.6 0-10.9-2.3-14.7-6.4L199.9 427.9c-5.5-5.9-7-14.4-3.8-21.8s10.4-12.1 18.5-12.1h174.6V84.4c0-11.1 9-20.1 20.1-20.1h207.5c11.1 0 20.1 9 20.1 20.1V394h172.4c8 0 15.3 4.8 18.5 12.1 3.2 7.4 1.7 15.9-3.8 21.8L526.8 745.7c-3.8 4.1-9.2 6.4-14.7 6.4z m-251-317.8l251 268.1 251-268.1H616.9c-11.1 0-20.1-9-20.1-20.1V104.5H429.6v309.6c0 11.1-9 20.1-20.1 20.1H261.1z" fill="#2E3742"/></svg>