<?xml version="1.0" encoding="iso-8859-1"?>
<svg xmlns="http://www.w3.org/2000/svg" class="svg-icon" style="width: 1.0244140625em;height: 1em;vertical-align: middle;fill: currentColor;overflow: hidden;" viewBox="0 0 1049 1024" version="1.1"><path d="M530.28281166 752.75755133m-195.046458 0a195.046458 195.046458 0 1 0 390.092916 0 195.046458 195.046458 0 1 0-390.092916 0Z" fill="#FFFFFF"/><path d="M284.03665866 752.75755133a244.173785 244.173785 0 0 1 211.308456-241.638181v-87.307671L237.71312466 166.15532833l45.957822-45.957822 211.747311 211.722931V21.33333333h65.047994v308.197785l209.357991-209.333612L815.78206466 166.15532833 560.46625166 421.49552333v89.648228A243.808073 243.808073 0 1 1 284.03665866 752.75755133z m65.023613 0a178.80884 178.80884 0 1 0 178.80884-178.78446A179.003887 179.003887 0 0 0 349.13341366 752.75755133z" fill="#FF0000"/></svg>