<svg xmlns="http://www.w3.org/2000/svg" class="svg-icon" style="width: 1em;height: 1em;vertical-align: middle;fill: currentColor;overflow: hidden;" viewBox="0 0 1024 1024" version="1.1"><path d="M253.305263 417.684211h517.389474c26.947368 0 48.505263 21.557895 48.505263 45.810526v347.621052c0 24.252632-21.557895 45.810526-48.505263 45.810527H253.305263c-26.947368 0-48.505263-21.557895-48.505263-45.810527V463.494737c0-26.947368 21.557895-45.810526 48.505263-45.810526z" fill="#10ABFF" opacity=".4"/><path d="M932.378947 261.389474h-75.452631V212.884211h64.673684c10.778947 0 18.863158-8.084211 18.863158-18.863158s-8.084211-18.863158-18.863158-18.863158h-64.673684V134.736842H916.210526c10.778947 0 18.863158-8.084211 18.863158-18.863158s-8.084211-18.863158-18.863158-18.863158h-59.28421V56.589474c0-10.778947-8.084211-18.863158-18.863158-18.863158s-18.863158 8.084211-18.863158 18.863158v40.421052h-59.284211c-10.778947 0-18.863158 8.084211-18.863157 18.863158s5.389474 18.863158 16.168421 18.863158h59.28421v40.421053H754.526316c-10.778947 0-18.863158 8.084211-18.863158 18.863158s8.084211 18.863158 18.863158 18.863158h64.673684v48.505263H530.863158V212.884211h64.673684c10.778947 0 18.863158-8.084211 18.863158-18.863158s-8.084211-18.863158-18.863158-18.863158h-64.673684V134.736842h59.28421c10.778947 0 18.863158-8.084211 18.863158-18.863158s-8.084211-18.863158-18.863158-18.863158h-59.28421V56.589474c0-10.778947-8.084211-18.863158-18.863158-18.863158s-18.863158 8.084211-18.863158 18.863158v40.421052h-59.28421c-10.778947 0-18.863158 8.084211-18.863158 18.863158s8.084211 18.863158 18.863158 18.863158h59.28421v40.421053h-64.673684c-10.778947 0-18.863158 8.084211-18.863158 18.863158s8.084211 18.863158 18.863158 18.863158h64.673684v48.505263H204.8V212.884211H269.473684c10.778947 0 18.863158-8.084211 18.863158-18.863158s-8.084211-18.863158-18.863158-18.863158H204.8V134.736842h59.284211c10.778947 0 18.863158-8.084211 18.863157-18.863158s-8.084211-18.863158-18.863157-18.863158H204.8V56.589474c0-10.778947-8.084211-18.863158-18.863158-18.863158s-18.863158 8.084211-18.863158 18.863158v40.421052H107.789474c-10.778947 0-18.863158 8.084211-18.863158 18.863158s8.084211 18.863158 18.863158 18.863158h59.28421v40.421053H102.4c-10.778947 0-18.863158 8.084211-18.863158 18.863158s8.084211 18.863158 18.863158 18.863158h64.673684v48.505263H91.621053c-32.336842 0-56.589474 24.252632-56.589474 56.589473v237.136842c0 29.642105 26.947368 56.589474 56.589474 56.589474H107.789474c10.778947 0 18.863158-8.084211 18.863158-18.863158s-8.084211-21.557895-18.863158-21.557894h-16.168421c-10.778947 0-18.863158-8.084211-18.863158-18.863158v-237.136842c0-10.778947 8.084211-18.863158 18.863158-18.863158h838.063158c10.778947 0 18.863158 8.084211 18.863157 18.863158v237.136842c0 10.778947-8.084211 18.863158-18.863157 18.863158H916.210526c-10.778947 0-18.863158 8.084211-18.863158 18.863157s8.084211 18.863158 18.863158 18.863158h16.168421c32.336842 0 56.589474-24.252632 56.589474-56.589473v-237.136842c0-29.642105-26.947368-53.894737-56.589474-53.894737z" fill="#10ABFF"/><path d="M770.694737 398.821053H253.305263c-37.726316 0-67.368421 29.642105-67.368421 64.673684v347.621052c0 35.031579 29.642105 64.673684 67.368421 64.673685h140.126316v53.894737c0 10.778947-8.084211 18.863158-18.863158 18.863157H269.473684c-10.778947 0-18.863158 8.084211-18.863158 18.863158s8.084211 18.863158 18.863158 18.863158h105.094737c32.336842 0 56.589474-24.252632 56.589474-56.589473v-53.894737h169.768421v53.894737c0 29.642105 26.947368 56.589474 56.589473 56.589473h105.094737c10.778947 0 18.863158-8.084211 18.863158-18.863158s-8.084211-18.863158-18.863158-18.863158h-105.094737c-10.778947 0-18.863158-8.084211-18.863157-18.863157v-53.894737h132.042105c37.726316 0 67.368421-29.642105 67.368421-64.673685V463.494737c0-35.031579-29.642105-64.673684-67.368421-64.673684z m29.642105 412.294736c0 16.168421-13.473684 26.947368-29.642105 26.947369H253.305263c-16.168421 0-29.642105-13.473684-29.642105-26.947369V463.494737c0-16.168421 13.473684-26.947368 29.642105-26.947369h517.389474c16.168421 0 29.642105 13.473684 29.642105 26.947369v347.621052z" fill="#10ABFF"/><path d="M331.452632 501.221053c-10.778947 0-18.863158 8.084211-18.863158 18.863158V754.526316c0 10.778947 8.084211 18.863158 18.863158 18.863158s18.863158-8.084211 18.863157-18.863158v-234.442105c0-10.778947-8.084211-18.863158-18.863157-18.863158zM455.410526 501.221053c-10.778947 0-18.863158 8.084211-18.863158 18.863158V754.526316c0 10.778947 8.084211 18.863158 18.863158 18.863158s18.863158-8.084211 18.863158-18.863158v-234.442105c0-10.778947-8.084211-18.863158-18.863158-18.863158zM582.063158 501.221053c-10.778947 0-18.863158 8.084211-18.863158 18.863158V754.526316c0 10.778947 8.084211 18.863158 18.863158 18.863158s18.863158-8.084211 18.863158-18.863158v-234.442105c0-10.778947-10.778947-18.863158-18.863158-18.863158zM706.021053 501.221053c-10.778947 0-18.863158 8.084211-18.863158 18.863158V754.526316c0 10.778947 8.084211 18.863158 18.863158 18.863158s18.863158-8.084211 18.863158-18.863158v-234.442105c0-10.778947-8.084211-18.863158-18.863158-18.863158z" fill="#10ABFF"/></svg>